<svg width="350" height="350" viewBox="0 0 350 350" fill="none" xmlns="http://www.w3.org/2000/svg">
<path d="M340.305 337.241C328.03 352.046 312.459 352.322 295.091 346.362C288.704 344.171 282.148 339.061 278.425 333.548C277.063 331.536 275.099 326.825 273.808 325.344C272.443 323.78 265.824 322.74 263.64 322.576C256.469 322.037 248.611 322.59 241.412 322.205C237.933 322.019 235.206 321.69 231.629 321.606C218.501 321.302 205.393 322.821 192.236 323.048C158.969 323.629 125.575 321.032 92.2968 322.835C86.0811 323.171 82.5842 322.488 78.5313 327.567C66.8973 342.144 58.7596 351.451 37.4656 349.669C26.8255 348.78 11.2505 337.286 7.27795 327.598C3.19341 317.641 5.50692 300.638 11.296 291.608C17.4525 282 26.5841 279.522 28.1346 266.793C30.6616 246.013 29.4751 224.744 29.4821 203.761C29.4821 191.056 29.8775 178.316 29.685 165.601C29.4576 150.698 29.5835 135.466 29.8286 120.391C29.9966 110.031 31.9951 96.2587 29.069 86.4866C25.4605 74.4256 13.1265 71.2199 6.29795 61.5805C-6.52614 43.4787 1.31741 17.6732 20.046 6.86866C39.4397 -4.32083 60.9648 -1.83233 76.2671 14.2852C79.0319 17.1972 80.2709 20.2842 83.8864 23.0492C89.8889 27.6377 92.1814 28.1312 99.7939 28.4952C115.008 29.2232 130.489 28.5967 145.746 29.0482C180.287 30.0737 215.963 31.4177 250.466 29.7832C254.656 29.5837 266.066 29.0482 269.587 28.0367C277.123 25.8702 277.686 18.8002 281.074 13.1512C288.214 1.24418 299.348 -0.106822 312.228 1.07268C326.368 2.36768 343.399 8.37019 348.198 22.7727C351.977 34.1127 348.169 50.7449 340.76 60.107C335.307 66.9952 327.019 70.7227 324.18 79.0912C323.057 116.216 326.35 153.211 325.892 190.29C325.584 215.161 322.339 242.891 324.95 267.349C325.101 268.746 327.754 276.621 328.517 277.503C329.077 278.15 333.021 280.04 334.159 280.831C353.297 294.163 354.781 319.786 340.305 337.244V337.241ZM295.998 276.351C299.736 274.416 302.445 272.988 303.677 270.111C305.777 265.211 305.641 259.488 305.914 250.931C307.093 213.985 305.63 176.087 304.664 139.183C304.3 125.232 303.53 111.281 303.089 97.3577C302.963 93.3012 303.089 86.2803 302.48 82.4651C301.924 79.0107 301.924 76.2105 295.001 73.932C292.453 73.092 289.884 71.4999 287.591 69.9386C283.972 67.4679 279.604 63.5022 277.574 59.6488C276.409 57.4403 274.956 52.3407 273.517 50.7131C271.232 48.13 263.108 46.2543 259.573 46.1106C256.724 45.9915 250.12 46.2365 247.264 46.1947C231.86 45.967 216.516 45.2812 201.113 45.0957C174.215 44.7667 147.041 44.6127 120.14 45.6384C109.636 46.0406 94.7189 45.1167 86.0424 51.7144C83.4417 53.6915 81.5239 60.1493 79.4798 63.2713C76.0357 68.5283 70.3764 73.0152 64.7135 75.8223C58.7878 78.7585 55.0254 78.1076 50.9162 84.2572C46.2017 91.3168 46.3067 109.415 46.0198 118.183C44.4482 166.077 46.1599 214.062 46.0476 261.984C46.1912 263.02 47.8221 269.414 52.4875 272.918C53.1981 273.45 55.6797 274.283 56.7436 274.927C58.7701 276.152 61.2799 276.922 63.2186 278.164C65.802 279.82 67.2683 281.57 69.7535 283.761C75.8606 289.144 78.1744 298.562 85.2058 302.188C91.0579 305.205 112.475 304.281 120.118 304.498C131.728 304.831 143.376 305.552 154.961 305.615C171.545 305.706 188.117 304.288 204.679 303.942C220.807 303.606 236.795 303.862 252.892 303.389C256.619 303.28 263.798 304.05 267.004 303.396C272.495 302.276 275.992 294.173 279.083 290.309C283.335 284.993 289.855 279.522 295.984 276.351H295.998Z" fill="black"/>
</svg>
