<svg width="315" height="315" viewBox="0 0 315 315" fill="none" xmlns="http://www.w3.org/2000/svg">
<path d="M1.23789 154.646C1.53398 137.838 1.07415 120.948 1.74509 104.19C2.10733 95.1755 2.83496 86.1759 3.00191 77.1389C3.3421 58.9827 2.66169 40.9209 2.81289 22.7521C2.85384 17.9232 3.30739 13.0975 3.18454 8.21826C3.1562 7.12839 2.4097 1.10881 2.83809 0.614267C2.88849 0.557567 4.11698 0.252066 4.31228 0.230016C9.79636 -0.406274 17.0065 0.485145 22.7017 0.431598C36.2589 0.30245 49.4102 -0.292908 62.9643 0.598524C80.0719 1.7262 96.4264 0.226832 113.442 0.31503C123.459 0.365427 132.944 1.40177 143.134 1.14977C169.03 0.507188 194.787 1.3797 220.673 1.45845C230.681 1.48995 240.691 0.315038 250.705 0.412684C270.392 0.604831 290.167 0.557602 309.855 1.68528C311.055 1.75458 312.284 1.62228 313.483 1.67898C313.672 6.24954 313.462 10.839 313.654 15.4127C314.217 28.9732 315.09 42.6471 314.992 56.28C314.923 66.2151 314.198 76.1719 314.006 86.094C313.814 96.0165 314.088 105.425 313.836 115.08C306.529 115.619 299.173 115.461 291.84 115.612C269.787 116.066 247.678 116.255 225.628 116.885C221.571 117.001 217.577 116.302 213.52 116.516C213.403 117.096 213.724 117.688 213.712 118.221C213.472 128.143 213.378 138.075 213 148.013C212.052 172.957 211.022 197.889 210.868 222.836C210.858 224.314 211.564 225.596 210.666 227.01L198.605 227.766C189.583 228.33 180.483 228.418 171.411 228.846C156.792 229.536 142.372 229.779 127.778 229.561C126.688 229.546 119.374 229.631 119.065 230.122C118.47 231.067 119.834 240.857 119.919 242.75C120.035 245.245 119.594 247.444 119.56 249.737C119.386 261.943 120.312 274.555 119.752 286.714C119.421 293.886 118.955 301.03 118.678 308.231C118.646 309.066 118.926 313.825 118.69 313.986C118.492 314.125 115.575 314.405 115.068 314.433C103.634 315.076 91.295 314.282 79.7317 314.418C72.0552 314.509 64.5015 315.139 56.7749 314.972C39.1254 314.588 21.5079 314.244 3.78938 314.418C3.27279 314.424 2.80967 314.607 2.29938 314.607C3.37351 307.626 2.24275 300.678 1.94666 293.716C1.62851 286.185 1.03628 277.825 1.23158 270.372C1.58437 256.893 1.2694 243.5 1.0678 230.006C1.0237 227.026 1.36705 223.901 1.2442 220.849C1.0615 216.243 0.198447 211.56 0 206.951C0 206.951 0.396894 200.61 0 198.159C0 198.04 0.989052 169.035 1.2442 154.656L1.23789 154.646Z" fill="black"/>
</svg>
