<svg width="315" height="315" viewBox="0 0 315 315" fill="none" xmlns="http://www.w3.org/2000/svg">
<path d="M134.135 305.362C131.552 302.411 128.563 296.038 127.737 292.173C125.526 281.832 131.612 264.944 140.044 258.502C142.338 256.75 143.881 256.606 145.721 254.035C150.95 246.73 149.627 238.257 149.466 229.698C149.413 226.797 149.328 223.675 149.302 220.661C149.299 220.27 148.959 220.081 148.956 219.836C148.956 219.741 149.299 218.22 149.299 218.122C149.287 215.737 149.088 213.334 149.12 210.931C149.173 206.864 149.614 200.541 148.59 196.591C146.697 189.286 140.766 188.59 138.633 187.922C130.059 185.235 122.373 194.543 116.867 200.059C109.017 207.922 101.413 217.656 93.4685 225.449C85.3415 233.422 76.8554 240.556 69.3111 249.203C66.8636 252.007 64.0538 254.542 63.6096 258.329C62.8914 264.474 67.5062 268.651 68.5457 274.577C69.8089 281.775 68.0858 292.252 63.5781 298.121C55.7441 308.317 40.2303 318.274 27.435 311.814C25.2143 310.692 24.8741 310.428 22.4171 309.527C13.091 306.099 8.52345 300.474 6.4539 290.705C3.88665 278.587 6.1137 269.533 12.0893 259.088C17.4747 249.676 28.4777 246.818 38.7089 247.537C41.1375 247.707 46.4138 249.622 47.9636 249.361C48.918 249.2 55.5583 244.872 56.4119 244.018C57.3884 243.042 58.2704 241.564 59.2217 240.5C73.1857 224.854 88.3498 208.858 103.23 194.127C109.741 187.682 118.372 179.779 124.156 172.959C124.392 172.679 125.063 172.071 125.46 170.871C125.762 169.951 125.762 168.723 124.247 167.494C122.732 166.266 114.649 166.341 114.649 166.341C103.363 166.807 92.1518 167.828 80.8937 168.685C77.1893 168.965 72.143 168.622 68.7063 169.242C68.1141 169.349 65.3831 169.646 64.2617 170.773C63.8616 171.176 62.2866 175.3 61.8173 176.166C52.2759 193.683 31.1867 201.912 14.9746 187.519C0.443682 174.619 2.07853 146.679 18.196 135.726C25.9734 130.44 31.5584 130.244 40.6745 131.57C48.455 132.704 57.8136 138.668 62.0882 145.384C63.9498 148.311 63.8459 150.367 68.0102 151.287C85.9463 149.164 118.395 149.618 122.077 148.279C125.759 146.94 127.277 143.563 125.337 140.473C124.824 139.654 120.584 136.155 119.516 135.15C111.953 128.023 104.777 120.514 97.1887 113.392C83.7004 100.738 70.5932 85.5044 56.0748 73.9943C55.4637 73.5092 52.9406 71.4838 52.509 71.2412C49.5984 69.5906 45.7365 69.8111 45.1632 69.7985C42.7125 69.7355 39.4145 71.0207 36.7307 71.1499C25.0914 71.7106 8.29349 66.0689 3.03614 54.6908C-4.99322 37.3181 3.42674 11.8879 22.1178 5.83659C34.5761 1.80454 42.1109 3.14014 52.5122 11.0026C63.3671 19.2086 68.8292 35.2548 64.9327 48.4758C64.6019 49.6035 63.1088 53.078 62.9513 53.9411C62.7718 54.9144 63.3356 56.3949 63.5183 56.7603C65.0712 59.8694 68.7536 61.7184 71.3838 64.0308C74.0141 66.343 76.4585 69.3008 79.1549 71.7295C93.1189 84.3106 107.659 98.1583 121.261 111.13C123.91 113.656 126.14 116.589 128.704 119.163C129.838 120.303 136.687 126.984 139.295 128.531C140.558 129.28 142.168 129.18 143.261 128.72C145.185 127.907 147.315 125.352 147.781 124.741C151.208 120.274 150.931 113.833 151.123 108.377C151.425 99.8404 151.794 85.3847 150.6 77.1002C150.502 76.4135 148.203 69.6977 147.838 68.8535C146.014 64.6545 142.631 64.286 139.156 62.2382C123.22 52.8512 123.516 34.2123 129.864 18.6038C135.238 5.38299 150.191 -2.27794 164.029 0.604354C166.693 1.15877 172.88 3.91509 174.717 4.68369C185.342 9.12211 193.387 17.6966 194.133 29.7203C195.069 44.8092 190.092 55.0782 177.8 63.41C173.935 66.0311 171.33 65.9492 167.818 69.7135C162.539 75.3709 163.188 80.6314 163.046 88.1066C162.869 97.3802 163.389 103.044 163.389 115.628C163.389 117.764 163.462 122.193 164.444 124.174C164.885 125.062 166.35 129.098 169.327 129.778C171.888 130.361 175.261 129.154 176.918 128.449C182.566 126.052 190.375 115.225 194.703 110.295C198.751 105.684 202.726 101.006 206.78 96.4069C215.067 87.0007 225.04 75.9001 234.156 67.206C238.702 62.8745 245.156 59.3213 245.899 52.4795C246.469 47.2505 244.51 42.9255 245.291 37.1385C246.145 30.7977 252.218 16.8398 256.899 12.5715C266.459 3.85839 280.571 -0.290238 292.497 6.18943C299.418 9.95056 304.439 13.6645 307.633 21.1648C313.747 35.5194 311.659 48.942 302.143 61.0128C294.746 70.3939 279.491 72.7627 268.649 69.3008C267.092 68.8031 263.807 67.0076 262.512 66.806C259.942 66.4028 256.515 66.3429 254.351 67.8896C250.234 70.8349 245.181 78.1996 241.193 82.0205C231.488 91.3196 221.937 102.638 212.156 112.05C203.41 120.47 196.47 130.543 186.52 137.821C185.241 138.955 183.42 141.103 184.724 145.359C185.335 147.359 188.18 148.953 189.884 149.646C193.708 151.202 202.493 150.405 207.12 150.616C210.276 150.761 213.533 151.344 216.702 151.467C222.47 151.687 226.87 151.382 232.575 151.234C235.359 151.161 244.661 151.366 247.027 151.114C251.692 150.619 252.905 148.78 253.418 148.04C253.932 147.299 255.557 143.573 256.253 142.373C257.772 139.749 259.706 136.41 262.024 134.491C265.732 131.422 272.18 129.202 276.769 127.655C289.328 123.421 301.897 131.454 308.625 141.872C315.269 152.16 311.312 169.869 303.777 178.736C288.972 196.165 268.793 190.168 257.173 173C256.222 171.592 255.078 168.789 253.985 167.693C253.412 167.119 247.969 164.445 247.184 164.36C243.411 163.957 234.692 164.628 230.597 164.52C219.99 164.24 210.512 164.039 199.841 164.354C194.467 164.511 189.462 162.81 186.186 168.108C184.028 171.599 184.592 175.23 186.447 178.727C194.067 187.468 201.586 195.791 210.005 203.755C222.986 216.034 239.045 235.082 252.083 247.316C254.924 249.981 261.174 257.258 264.358 258.325C273.49 261.384 280.842 252.268 293.263 256.864C310.796 263.334 321.61 282.112 310.474 299.516C302.395 312.147 281.16 320.413 268.135 310.544C264.62 307.879 258.118 299.072 256.663 294.876C253.809 286.642 256.811 281.407 256.376 273.749C255.992 266.972 254.052 266.985 249.925 262.704C236.616 248.901 218.62 230.149 204.802 216.871C198.464 210.782 192.06 204.895 185.524 199.057C183.225 197.003 181.291 194.376 178.997 192.275C176.575 190.058 176.222 188.533 172.798 188.057C170.801 187.777 169.513 188.029 167.639 188.977C167.031 189.283 165.515 190.206 164.337 192.726C164.117 193.044 163.093 199.555 163.03 200.399C162.387 208.952 163.257 219.275 163.364 227.859C163.421 232.499 163.147 237.129 163.184 241.76C163.2 243.829 163.203 248.138 163.37 249.94C163.695 253.433 167.081 255.336 168.319 256.313C170.678 258.168 174.335 258.697 176.833 260.751C178.714 262.298 182.825 267.13 184.167 269.231C196.143 287.984 179.341 316.104 157.477 314.967C147.986 314.472 140.615 312.771 134.135 305.362Z" fill="black"/>
</svg>
