<svg width="315" height="315" viewBox="0 0 315 315" fill="none" xmlns="http://www.w3.org/2000/svg">
<path d="M180.581 5.09202C181.647 6.22811 181.038 7.08753 181.152 8.24568C181.193 8.66883 181.45 8.94603 181.495 9.29253C182.117 14.1587 171.958 23.6324 169.257 27.8812C168.077 29.7334 167.172 31.7284 165.903 33.5396C163.9 36.4004 161.24 38.7524 159.222 41.5842C157.35 44.2103 154.601 48.0795 152.992 50.7785C151.568 53.1652 150.745 56.0164 149.158 58.3842C146.95 61.6843 144.674 63.2215 142.897 67.1963C138.866 76.209 135.261 85.7435 131.494 94.7845C129.555 99.4434 127.666 104.398 125.759 109.185C122.084 118.411 118.476 126.99 116.822 136.989C116.061 141.604 115.486 145.108 114.429 149.684C112.585 157.685 112.154 165.965 111.287 174.118C110.662 179.993 111.195 186.17 111.275 191.956C111.328 196.071 110.929 200.186 111.078 204.294C111.091 204.603 111.437 204.533 111.44 204.641C111.516 206.286 111.287 208.141 111.424 209.844C111.449 210.162 111.779 210.08 111.786 210.194C112.424 221.237 113.966 232.309 115.413 243.32C115.626 244.946 115.445 246.982 115.775 248.51C117.114 254.754 124.007 268.056 127.562 273.645C129.361 276.471 137.991 286.464 140.983 287.094C141.402 287.183 141.764 286.899 142.275 286.982C142.691 287.052 143.113 287.507 143.525 287.651C148.397 289.324 153.684 291.753 158.492 293.808C159.917 294.416 161.171 295.365 162.656 295.88C165.386 296.825 170.19 297.592 173.139 298.035C190.32 300.593 206.347 290.929 219.14 280.541C227.56 273.706 234.116 268.321 240.47 259.251C246.824 250.181 250.29 239.161 254.888 229.123C258.386 221.492 262.276 213.975 264.774 205.901C266.395 200.657 266.888 195.864 269.192 190.727C272.829 182.622 278.716 175.471 285.073 169.351C288.738 165.822 300.214 159.05 305.095 157.853C307.812 157.188 312.531 157.262 313.524 160.559C314.241 162.936 313.029 162.945 311.845 164.361C306.939 170.236 300.586 172.613 295.514 177.565C283.403 189.391 278.884 204.475 272.134 219.528C268.122 228.474 264.228 237.305 260.48 246.359C256.281 256.504 245.11 275.873 236.776 282.791C234.529 284.656 231.968 286.196 229.616 287.927C220.366 294.738 211.368 300.839 200.828 305.555C195.113 308.11 185.789 311.515 179.536 310.879C178.108 310.733 176.131 309.752 175.014 309.673C174.313 309.625 173.472 309.997 172.764 310.029C165.255 310.366 158.146 308.266 151.135 305.876C137.273 301.147 123.811 292.765 116.67 279.541C113.08 272.894 104.204 255.712 104.528 248.72C104.546 248.278 104.87 247.934 104.848 247.342C104.788 245.662 103.271 242.202 102.83 240.328C98.3546 221.355 99.0528 202.108 98.1168 182.771C98.006 180.505 97.4028 177.982 97.4122 175.655C97.4217 173.329 97.9997 170.624 98.1168 168.212C98.4438 161.421 98.4281 155.394 99.8907 148.653C100.345 146.559 101.186 144.494 101.662 142.447C102.591 138.463 102.836 134.339 103.731 130.297C106.079 119.703 110.986 110.83 114.972 100.971C116.426 97.378 117.464 93.6232 118.965 90.0522C122.221 82.3032 126.019 74.7164 129.336 66.9674C130.986 63.1071 131.973 59.1003 134.334 55.4978C135.525 53.6807 137.372 52.0895 138.393 50.1995C139.609 47.9493 140.345 45.2125 141.621 42.8542C143.363 39.627 146.226 34.618 148.314 31.6969C150.016 29.3166 152.383 27.2097 154.068 24.8005C156.08 21.9266 157.53 18.7856 159.79 15.9632C161.672 13.608 163.507 11.4503 165.344 9.04158C168.724 4.61163 170.19 0.789117 176.582 1.73149C176.724 1.75354 178.645 2.61926 178.734 2.69539C179.139 3.04556 178.994 3.6409 179.248 4.08978C179.502 4.53813 180.282 4.77386 180.581 5.09516V5.09202Z" fill="black"/>
<path d="M211.841 20.3579C210.686 21.7391 209.708 23.6612 208.566 25.1412C203.085 32.2218 197.112 38.956 191.986 46.3391C182.183 60.4589 174.595 75.738 167.168 91.1945C165.956 93.7156 165.083 96.4172 163.773 98.8931C161.072 103.995 158.329 107.578 155.855 113.176C151.519 122.984 147.667 132.515 144.369 142.781C141.646 151.259 139.52 162.032 138.771 171.153C138.431 175.296 138.647 179.49 138.428 183.646C138.085 190.189 136.806 198.407 137.387 204.803C137.565 206.773 138.365 206.916 139.142 208.422C141.163 212.346 141.538 215.798 142.223 220.079C142.677 222.914 143.328 225.183 143.902 227.939C144.477 230.695 144.496 233.721 145.045 236.509C147.248 247.68 152.09 254.522 160.567 261.714C163.988 264.616 175.991 267.703 180.555 268.041C188.165 268.603 206.918 266.179 212.802 261.176C215.624 258.777 218.318 252.997 220.46 249.774C222.12 247.272 224.262 244.949 225.826 242.489C230.041 235.851 233.266 227.71 236.95 220.68C239.936 214.984 243.825 209.296 246.531 203.569C249.527 197.232 249.772 190.74 252.089 184.334C256.681 171.642 261.673 155.724 268.5 144.233C274.221 134.599 291.058 121.396 302.695 122.319C308.897 122.812 316.072 126.087 314.866 133.46C314.761 134.1 313.666 135.16 313.149 135.573C309.116 138.794 302.838 138.329 297.967 139.434C292.844 140.595 285.574 144.37 281.673 147.905C279.299 150.053 278.553 152.863 277.033 155.568C272.19 164.18 269.004 171.84 264.865 180.668C263.66 183.239 262.009 185.518 260.883 188.124C259.527 191.262 258.82 194.651 257.585 197.827C253.872 207.374 247.931 216.044 243.637 225.304C242.329 228.121 242.183 230.227 241.27 232.993C240.451 235.469 238.744 237.384 237.82 239.768C237.36 240.958 237.163 242.247 236.668 243.472C235.452 246.474 233.272 248.694 231.815 251.444C231.111 252.772 230.676 254.439 229.883 255.754C228.489 258.064 223.907 262.529 221.692 264.196C219.476 265.864 212.983 270.386 210.682 271.372C209.524 271.869 208.254 271.882 207.058 272.251C203.532 273.336 199.863 275.739 196.293 277.072C184.274 281.553 168.311 279.771 156.696 274.615C153.709 273.292 145.88 267.086 143.436 264.664C136.527 257.803 132.392 248.351 130.859 238.759C130.472 236.334 130.503 233.83 130.062 231.401C129.37 227.608 128.231 224.674 128.028 220.604C127.898 217.997 128.361 214.911 128.193 212.466C128.091 210.967 126.809 208.574 126.39 206.977C124.616 200.227 125.213 192.01 125.261 185.021C125.368 169.129 126.365 154.681 130.929 139.351C134.556 127.165 139.367 113.195 145.42 102.008C147.32 98.4952 150.11 95.6885 151.941 92.4136C153.877 88.9512 155.47 84.5501 157.356 80.8394C170.041 55.8673 183.423 32.6833 200.463 10.4286C202.126 8.2582 206.893 2.13566 209.184 1.30511C211.006 0.643087 213.389 0.585864 215.195 1.34606C215.379 1.42271 217.988 3.49437 218.089 3.65029C218.394 4.13382 219.578 8.00043 219.527 8.55116C219.007 14.2574 214.985 16.6026 211.841 20.361V20.3579Z" fill="black"/>
<path d="M176.201 101.213C177.811 97.8174 179.397 94.1766 181.089 90.7557C184.891 83.0733 189.788 76.0657 193.876 68.533C200.08 57.0953 207.576 45.2571 215.999 35.3724C228.443 21.6179 242.864 9.34657 261.433 5.11717C264.622 4.39162 270.113 3.14423 273.15 4.29976C274.987 4.99958 277.323 7.69492 276.939 9.72247C276.631 11.361 275.711 11.361 274.772 12.0739C269.916 15.7531 267.51 15.5715 261.994 17.3029C257.802 18.6202 253.305 20.7905 249.49 22.9803C244.295 25.9591 241.039 29.8321 236.698 33.7465C231.487 38.4436 226.126 42.5869 221.744 48.2422C217.138 54.1837 211.435 62.2702 207.487 68.6443C204.641 73.2459 202.423 78.5673 199.699 83.2167C190.832 98.365 183.828 114.169 176.69 130.234C173.939 136.426 171.448 143.007 169.216 149.458C168.378 151.883 167.959 154.505 167.1 156.876C166.24 159.247 165.414 160.495 164.808 163.079C161.584 176.782 160.168 190.896 161.632 204.956C162.285 211.219 163.148 217.994 166.659 223.338C168.667 226.399 173.758 231.783 177.144 233.123C182.692 235.316 189.322 236.392 195.088 238.04C199.95 235.548 206.262 233.753 209.331 228.89C209.966 227.888 210.309 226.647 210.89 225.597C212.552 222.599 214.91 219.729 216.434 216.584C217.008 215.401 217.256 213.831 217.808 212.584C218.389 211.273 219.429 210.095 219.997 208.88C220.693 207.394 220.962 205.437 221.613 203.906C223.673 199.043 226.282 194.298 227.881 189.2C228.608 186.886 228.633 184.251 229.338 181.814C229.804 180.194 230.633 178.724 231.109 177.171C232.299 173.303 233.067 170.213 234.451 166.296C235.558 163.165 236.145 159.817 237.259 156.796C238.218 154.197 239.842 151.625 240.969 149.066C244.413 141.254 246.802 133.04 249.449 124.954C251.293 119.315 256.45 111.476 261.312 108.049C262.75 107.037 264.283 106.279 265.743 105.207C273.791 99.2943 280.107 92.0923 289.815 88.4037C295.911 86.0874 311.744 83.0098 314.839 90.8544C315.185 91.7295 314.652 95.2686 314.239 96.2419C312.065 101.369 299.615 104.341 294.763 106.55C292.884 107.406 290.961 108.8 289.123 109.742C287.063 110.795 284.813 111.575 282.775 112.746C280.738 113.917 278.939 115.435 276.841 116.507C274.594 117.657 270.052 118.685 268.63 120.419C267.612 121.666 266.676 123.436 265.584 124.826C263.562 127.404 262.779 128.391 261.315 131.475C257.396 139.733 253.747 148.106 249.779 156.339C246.841 162.436 244.362 171.623 242.743 178.255C242.169 180.604 240.938 182.727 240.344 185.044C239.751 187.36 239.646 189.524 238.91 191.758C237.837 195.001 235.882 199.769 234.479 202.929C233.718 204.644 232.464 206.366 231.823 208.072C231.318 209.411 231.134 210.773 230.553 212.177C229.972 213.58 228.897 214.917 228.361 216.225C227.922 217.291 227.834 218.564 227.443 219.639C226.843 221.278 224.882 225.164 223.991 226.758C222.826 228.836 221.537 230.511 220.296 232.77C216.964 238.849 212.156 240.99 206.196 243.959C202.14 245.98 200.553 245.665 196.313 245.831C195.008 245.882 192.809 246.833 191.264 247.03C185.484 247.765 173.371 245.235 168.582 241.887C154.218 231.847 150.514 216.829 149.552 200.118C148.677 184.866 150.965 171.916 154.259 157.185C158.69 137.371 167.566 119.439 176.208 101.219L176.201 101.213Z" fill="black"/>
<path d="M245.411 65.1241C244.566 66.1841 243.871 67.6515 243.062 68.7587C235.724 78.8119 226.121 87.6655 219.599 98.1451C217.044 102.25 216.108 106.84 213.95 111.043C212.126 114.598 209.412 117.984 207.387 121.466C203.617 127.938 199.795 135.526 196.464 142.262C194.572 146.084 193.61 150.613 191.738 154.527C190.656 156.79 188.869 158.891 187.942 161.131C186.6 164.383 186.162 168.81 185.257 172.317C183.236 180.133 180.433 186.88 180.455 195.275C180.462 198.308 180.738 205.971 183.347 207.817C192.281 214.14 195.381 203.972 196.67 197.121C198.298 188.468 197.955 181.266 201.265 172.756C202.465 169.669 204.461 166.811 205.425 163.569C208.771 152.3 208.615 141.896 214.172 131.048C219.044 121.532 224.119 115.378 230.26 106.928C235.445 99.7935 239.952 92.1622 246.375 85.963C247.673 84.7087 249.501 83.6047 250.818 82.3504C251.926 81.2941 252.833 79.8745 253.884 78.8308C257.864 74.8786 262.548 71.5244 267.375 68.6763C278.445 62.1458 289.394 56.4459 302.529 55.523C306.44 55.2494 311.771 55.8096 312.879 60.4212C313.281 62.0949 312.615 63.1228 311.549 64.3099C308.439 67.7754 299.404 69.163 294.833 70.7096C286.839 73.4181 276.867 77.5073 269.451 81.5136C264.433 84.2252 262.802 86.7394 258.841 90.3068C257.626 91.4014 255.966 92.3979 254.769 93.5114C248.828 99.0265 244.636 106.689 240.021 113.246C234.347 121.303 228.866 128.33 223.925 137.008C219.393 144.971 217.632 157.385 214.842 166.417C213.166 171.84 210.135 178.3 209.551 184.012C209.31 186.377 209.65 188.764 209.311 191.23C207.996 200.717 205.775 210.942 196.73 215.916C189.421 219.935 176.625 218.347 173.591 209.621C171.576 203.826 173.065 187.347 174.086 180.894C174.746 176.741 176.041 172.451 176.948 168.323C177.65 165.131 178.025 161.739 178.85 158.607C179.729 155.272 181.347 151.081 182.493 147.686C186.14 136.868 191.338 125.335 197.041 115.432C199.44 111.266 202.722 107.501 204.594 103.055C206.667 98.1319 207.435 94.9405 210.599 90.3388C213.528 86.0806 217.238 81.2243 220.431 77.1256C222.9 73.9557 226.045 71.4095 228.558 68.2752C234.023 61.4555 238.565 53.2539 245.433 47.5482C246.864 46.358 248.67 45.4671 250.171 44.3179C262.04 35.2259 276.956 25.7675 291.399 21.4715C297.321 19.7117 303.793 18.1871 308.315 23.3457C308.499 23.5557 309.515 25.9681 309.518 26.1177C309.524 26.8401 308.509 27.1934 308.499 27.3305C308.499 27.362 308.785 27.5819 308.829 27.8618C309.013 29.0231 309.181 29.768 308.407 30.7193C307.982 31.2417 307.401 31.3877 307.118 31.6838C306.801 32.0182 306.649 32.4697 306.328 32.801C303.913 35.3021 298.09 35.6717 294.786 36.6676C292.98 37.212 291.32 38.2463 289.556 38.8826C281.082 41.9312 269.178 46.6064 261.789 51.6374C256.001 55.5776 249.828 59.587 245.407 65.1341L245.411 65.1241Z" fill="black"/>
<path d="M5.60543 36.3142C5.97356 35.827 8.33159 33.539 8.83617 33.3957C13.5046 32.0722 17.7129 32.3426 22.156 34.4399C23.3493 35.0027 24.1649 35.8175 25.2947 36.3236C30.9882 38.8667 35.4599 39.7508 40.8265 43.6495C52.115 51.8505 57.088 63.2592 64.229 74.6591C66.2565 77.8952 68.472 80.4635 70.6713 83.4644C78.5163 94.1733 89.9797 110.406 90.6748 123.954C90.9441 129.211 90.0653 133.326 89.6337 138.364C88.6625 149.731 88.7103 161.156 88.0692 172.536C87.5358 182.036 85.3146 192.022 84.4446 201.518C83.7495 209.115 84.315 217.211 83.5689 224.931C83.1883 228.903 81.7629 233.483 81.6585 237.426C81.5445 241.674 81.7755 246.616 81.8328 250.951C81.963 260.895 85.1271 280.41 90.9415 288.503C94.5561 293.538 101.427 298.543 106.987 301.213C108.295 301.84 110.221 302.197 111.379 302.884C114.833 304.933 114.674 309.297 111.608 311.687C108.891 313.803 104.829 313.303 101.824 312.12C85.9839 305.895 77.123 295.005 72.6899 278.704C69.3351 266.363 66.3584 249.767 68.9545 237.164C69.1923 236.016 70.2303 233.158 70.2649 232.394C70.3631 230.199 70.0906 227.287 70.0875 224.944C70.0838 217.765 70.151 209.898 70.6014 202.731C70.8461 198.865 71.9439 194.769 72.4767 190.909C73.5845 182.905 74.54 175.019 75.0891 166.983C75.9013 155.094 76.7775 143.147 77.3519 131.258C78.1709 114.318 65.1393 99.2585 56.0248 86.1823C52.1343 80.6037 48.6875 74.6717 44.9617 68.9975C40.1853 61.722 35.4946 55.9082 27.8082 51.5003C24.917 49.8424 23.638 49.6933 20.5945 48.8464C18.8077 48.3498 16.9068 47.2583 15.247 46.9244C11.3434 46.1317 8.69657 46.4818 5.92279 42.9145C5.5261 42.4052 4.6089 40.4895 4.80563 39.9608C4.8945 39.7225 5.26586 39.5282 5.30077 39.3088C5.44992 38.411 4.79933 37.3831 5.60222 36.3205L5.60543 36.3142Z" fill="black"/>
<path d="M50.595 301.637C42.007 291.673 40.7852 284.363 39.6365 271.423C37.3737 245.945 40.9854 221.415 42.2355 196.137C42.5148 190.514 42.1278 184.541 42.5688 178.949C42.7434 176.744 43.3972 174.561 43.6097 172.362C43.8 170.401 43.6352 168.409 43.778 166.458C45.4314 143.813 47.7386 122.974 32.7845 104.112C27.3988 97.3209 17.7478 86.7968 10.5532 82.1631C7.88098 80.4411 3.51085 79.0919 1.93991 76.228C1.16872 74.8215 1.12753 71.5182 1.84477 70.1081C1.92729 69.9427 4.19324 67.5114 4.35193 67.419C4.51059 67.3266 7.42397 66.5439 7.75724 66.4961C12.2828 65.8472 20.7278 72.5142 23.9998 75.5345C30.4931 81.5268 37.0055 88.4705 42.6639 95.2461C52.785 107.368 58.5957 122.592 58.8467 138.527C59.0588 152.013 56.0663 165.402 55.1108 178.819C54.654 185.254 55.6757 192.195 55.3869 198.744C55.2095 202.789 54.4288 206.834 54.1716 210.885C53.1336 227.204 51.3852 243.517 50.3664 259.807C49.8239 268.454 50.1378 281.82 55.9839 288.691C57.2181 290.145 58.9065 291.425 60.1602 292.742C61.7568 294.423 63.2703 296.523 64.9776 298.063C67.6882 300.507 71.8772 302.639 73.6863 305.812C74.7558 307.684 75.4698 310.073 74.5431 312.168C74.4318 312.422 74.1814 312.415 74.0544 312.591C72.4421 314.789 69.059 315.334 66.5327 314.198C65.4984 313.733 63.7654 312.155 62.5878 311.387C57.0312 307.775 55.073 306.834 50.595 301.64V301.637Z" fill="black"/>
<path d="M82.2671 56.4905C84.5965 63.2851 94.3809 71.62 102.035 68.5613C103.451 67.9949 106.123 66.0025 107.202 64.8953C109.548 62.4797 114.476 52.3945 115.72 48.9736C120.322 36.2886 121.56 23.4098 129.808 12.0929C131.718 9.47053 138.427 3.03245 141.369 2.00188C145.609 0.512452 151.49 3.45612 149.754 8.67515C148.088 13.6936 144.01 15.9149 141.401 19.9028C133.337 32.2151 132.82 47.6338 125.654 60.322C123.013 64.994 120.017 70.948 116.111 74.5222C102.822 86.6691 87.7449 83.1049 76.3099 70.7065C68.3536 62.0818 69.0297 53.655 65.8052 43.2453C63.5236 35.8749 58.6295 28.9884 53.9234 23.0628C51.9937 20.6315 50.8194 17.9262 48.6358 15.5269C45.0053 11.539 39.2355 9.11405 41.7429 2.72375C41.8763 2.38355 42.7299 2.15412 43.1013 1.82967C43.7295 1.28262 43.9581 0.356524 44.923 0.184324C48.7979 -0.49975 51.1527 0.767075 53.9959 3.2078C58.3439 6.94055 60.1625 9.79235 63.5141 14.1362C65.2749 16.4178 66.9634 17.7865 68.668 20.4183C71.1434 24.2498 74.0981 29.1381 75.8784 33.3134C79.0709 40.792 79.6515 48.856 82.2702 56.4905H82.2671Z" fill="black"/>
<path d="M231.05 314.64C230.072 314.064 227.641 312.276 227.251 311.251C227.191 311.095 226.661 309.666 226.657 309.574C226.635 309.039 226.965 308.851 226.965 308.581C226.965 308.31 226.657 307.938 226.654 307.508C226.645 306.248 229.032 303.899 230.053 303.279C234.535 300.558 239.501 298.925 243.617 295.368C244.681 294.448 245.712 292.99 246.728 292.064C251.275 287.917 256.201 284.627 260.403 279.927C266.534 273.068 268.496 267.547 272.187 259.473C274.595 254.207 277.905 249.255 279.905 243.794C283.503 233.963 281.971 225.657 288.14 216.141C291.028 211.683 295.674 204.736 299.959 201.795C302.333 200.166 306.728 197.512 309.575 197.646C309.864 197.658 312.866 198.505 313.079 198.642C315.094 199.937 314.545 202.977 313.663 204.78C311.908 208.374 309.587 209 306.855 211.314C304.64 213.189 303.085 217.288 301.603 219.926C299.584 223.512 297.369 226.749 295.903 230.692C294.509 234.435 293.863 238.326 292.263 242.132C289.524 248.637 285.106 254.41 282.942 261.236C279.591 271.805 278.312 277.746 270.695 286.428C266.214 291.536 260.507 295.263 255.725 299.87C254.601 300.953 253.634 302.394 252.532 303.435C248.911 306.85 244.808 308.533 240.688 310.99C239.587 311.645 237.067 313.829 236.21 314.147C235.696 314.338 235.395 314.141 234.966 314.255C233.436 314.669 232.465 315.467 231.053 314.637L231.05 314.64Z" fill="black"/>
<path d="M7.57942 217.335C7.86822 217.049 7.95075 216.333 8.59813 216.014C9.07734 215.779 9.45508 215.881 9.88033 215.738C10.204 215.629 10.5056 215.248 10.8928 215.206C11.5751 215.133 11.6639 216.043 12.0543 216.126C12.7493 216.273 13.8951 215.474 14.8408 215.776C16.0658 216.164 16.418 217.838 16.656 218.042C16.7608 218.131 17.1194 218.054 17.294 218.175C18.9792 219.337 18.6206 220.317 19.049 222.147C20.0899 226.577 19.8361 231.557 19.7408 236.213C19.5632 244.895 18.8649 253.685 18.6871 262.395C18.538 269.667 18.1731 278.335 20.7691 285.133C22.0544 288.497 24.0475 291.737 25.2567 295.161C28.754 296.335 31.661 298.671 32.9749 302.213C33.4922 303.607 33.4954 305.125 33.7842 306.433C33.8762 306.85 34.3618 307.285 34.5268 307.773C34.6475 308.129 34.9521 309.275 34.9711 309.612C34.987 309.886 34.1491 311.028 34.2253 311.547C33.5937 312.03 32.9082 311.563 32.2831 311.582C31.6578 311.601 30.4963 312.136 29.6585 312.26C20.4422 313.622 15.1105 307.77 10.769 300.542C3.05068 287.695 5.32932 276.623 5.0342 262.398C4.80249 251.145 4.33602 240.786 4.68829 229.447C4.81524 225.336 3.92028 221.055 6.84001 217.724C7.03048 217.504 7.41441 217.497 7.57627 217.335H7.57942Z" fill="black"/>
<path d="M9.46727 114.914C6.62371 112.056 0.323975 108.192 0.000264176 103.832C-0.00925669 103.686 0.241435 101.093 0.28904 100.952C0.546105 100.163 3.2723 97.2669 4.07205 97.1813C5.07494 97.07 6.32215 96.723 7.06156 96.672C8.4358 96.5765 11.7205 98.4224 12.7995 99.339C20.6162 105.98 28.2425 118.468 31.6795 128.117C34.1137 134.943 34.4532 142.556 34.7864 149.811C35.1894 158.522 34.4564 165.857 33.2092 174.421C32.8601 176.808 32.1524 182.816 31.1209 184.646C29.2707 187.924 25.3671 190.712 22.3585 187.084C18.5914 182.543 19.534 176.082 19.3975 170.621C19.261 165.151 18.9437 159.635 19.0358 154.136C19.1277 148.638 20.2417 143.036 19.918 137.83C19.4959 131.074 14.2468 119.715 9.46727 114.914Z" fill="black"/>
<path d="M97.9577 34.6783C98.0559 34.7481 98.3032 34.6783 98.4559 34.6972C99.265 30.6815 100.157 26.6364 100.833 22.5918C101.109 20.9307 101.617 18.8811 101.741 17.2578C101.979 14.1645 101.328 11.8445 102.629 8.78008C103.762 6.11308 106.999 2.87961 109.475 1.41906C111.312 0.333886 111.61 0.661475 113.584 0.512375C113.848 0.49295 114.076 0.171655 114.454 0.162205C115.029 0.14593 118.069 2.22126 118.431 2.78773C118.868 3.47811 119.294 5.5277 119.214 6.31677C119.176 6.70212 117.526 9.79228 117.218 10.228C116.565 11.151 114.946 12.128 114.594 13.1497C114.264 14.1136 114.622 16.5448 114.543 17.7828C114.206 22.9131 112.61 34.4016 110.792 39.0033C107.158 48.1876 95.4787 51.4846 88.9477 43.2836C84.2983 37.4472 85.0501 33.9685 83.8951 27.1839C83.4383 24.4949 82.1211 21.1564 80.9593 18.6774C79.4042 15.3578 75.0404 9.55655 75.4342 6.14826C75.5229 5.36863 77.11 2.44386 77.6938 2.17033C77.992 2.03016 78.3479 2.14146 78.6078 2.04591C79.693 1.64166 80.5881 1.24108 81.9337 1.3907C82.927 1.502 84.7361 2.36773 85.4785 3.03921C88.2211 5.52771 93.7745 16.7963 95.0062 20.5516C96.3323 24.5999 96.1013 28.7878 97.1261 32.6513C97.2085 32.9694 97.8118 34.5765 97.9577 34.6783Z" fill="black"/>
<path d="M273.402 313.475C273.332 313.434 273.335 313.087 273.091 313.004C272.523 312.807 272.034 313.106 271.301 312.536C269.676 311.27 269.194 309.004 270.044 307.126C270.104 306.992 271.866 305.163 272.069 304.994C273.027 304.205 275.144 303.224 276.366 302.362C284.138 296.873 288.47 290.352 292.605 281.864C294.754 277.454 295.382 272.811 297.162 268.393C298.01 266.293 299.232 264.571 300.162 262.553C301.739 259.132 306.354 247.211 309.159 245.709C309.362 245.601 310.013 245.33 310.21 245.394C311.694 245.871 312.371 248.185 312.476 249.56C312.72 252.714 310.819 265.819 309.613 268.734C308.635 271.098 306.842 273.543 305.747 275.961C303.161 281.667 301.263 286.762 297.902 292.211C294.122 298.343 283.062 311.174 276.131 313.058C275.76 313.16 273.516 313.548 273.398 313.475H273.402Z" fill="black"/>
<path d="M1.16803 10.1136C1.0887 9.95453 0.638014 10.0658 0.688792 9.27992C0.723705 8.74179 1.13624 8.65307 1.22193 8.23622C1.51708 6.80402 0.720586 5.62959 2.08842 4.24831C2.40261 3.93331 2.84369 3.86035 3.13566 3.56425C3.68787 3.00408 4.08456 2.16722 4.79545 1.75982C5.24292 1.50205 9.04502 0.521877 9.61307 0.509277C12.3234 0.435777 19.1086 1.34928 21.5809 2.39928C24.1801 3.50388 28.7882 7.27179 29.8037 9.94194C32.0126 15.74 29.6514 20.4881 22.9519 19.0659C20.6573 18.5787 18.9499 16.5422 16.1921 16.3034C10.0733 15.7752 6.51883 17.4683 1.90433 12.0677C1.23469 11.2817 1.54884 10.8838 1.16166 10.1168L1.16803 10.1136Z" fill="black"/>
</svg>
